<?xml version="1.0" encoding="iso-8859-1"?>
<!-- Generator: Adobe Illustrator 19.0.0, SVG Export Plug-In . SVG Version: 6.00 Build 0)  -->
<svg version="1.1" id="Layer_1" xmlns="http://www.w3.org/2000/svg" xmlns:xlink="http://www.w3.org/1999/xlink" x="0px" y="0px"
	 viewBox="0 0 295.996 295.996" style="enable-background:new 0 0 295.996 295.996;" xml:space="preserve">
<g>
	<path style="fill:#FFCE00;" d="M270.996,123.998c0-11.334-1.363-22.348-3.907-32.899c-7.269-15.153-17.35-28.709-29.558-39.997
		c-22.391-13.376-48.766-20.666-76.771-19.645C83.492,34.273,23.139,99.196,25.955,176.463c0.412,11.304,2.17,22.239,5.087,32.673
		c6.303,12.01,14.397,22.938,23.934,32.42c21.892,14.189,47.99,22.44,76.022,22.44C208.316,263.996,270.996,201.316,270.996,123.998
		z M197.497,98.998c8.836,0,16,7.164,16,16s-7.164,16-16,16s-16-7.164-16-16S188.661,98.998,197.497,98.998z M98.497,98.998
		c8.836,0,16,7.164,16,16s-7.164,16-16,16s-16-7.164-16-16S89.661,98.998,98.497,98.998z M91.318,204.697
		c-7.852-7.851-23.536-23.534-23.536-23.534s17.881-17.88,23.535-23.535c6.499-6.498,15.018-9.748,23.536-9.748
		c8.519,0,17.037,3.25,23.535,9.748c5.732,5.732,8.933,13.036,9.608,20.524c0.676-7.488,3.876-14.792,9.608-20.524
		c6.498-6.498,15.017-9.748,23.535-9.748s17.037,3.25,23.536,9.748c5.654,5.655,23.535,23.535,23.535,23.535
		s-15.684,15.684-23.536,23.534c-6.498,6.499-15.017,9.749-23.535,9.749s-17.036-3.25-23.535-9.749
		c-5.732-5.731-8.933-13.035-9.608-20.523c-0.676,7.488-3.876,14.792-9.608,20.523c-6.499,6.499-15.018,9.749-23.535,9.749
		C106.335,214.446,97.816,211.196,91.318,204.697z"/>
	<path style="fill:#FFB100;" d="M267.089,91.099c2.544,10.552,3.907,21.565,3.907,32.899c0,77.318-62.68,139.998-139.998,139.998
		c-28.032,0-54.131-8.251-76.022-22.44c23.88,23.744,56.767,38.44,93.022,38.44c72.784,0,131.998-59.214,131.998-131.998
		C279.996,127.636,275.358,108.337,267.089,91.099z"/>
	<path style="fill:#FFE454;" d="M160.76,31.457c28.006-1.021,54.381,6.269,76.771,19.645C213.985,29.328,182.521,16,147.998,16
		C75.214,16,16,75.214,16,147.998c0,22.05,5.442,42.849,15.042,61.138c-2.917-10.434-4.675-21.369-5.087-32.673
		C23.139,99.196,83.492,34.273,160.76,31.457z"/>
	<path d="M147.998,0C66.392,0,0,66.392,0,147.998s66.392,147.998,147.998,147.998s147.998-66.392,147.998-147.998
		S229.605,0,147.998,0z M147.998,279.996c-36.256,0-69.143-14.696-93.022-38.44c-9.536-9.482-17.631-20.41-23.934-32.42
		C21.442,190.847,16,170.048,16,147.998C16,75.214,75.214,16,147.998,16c34.523,0,65.987,13.328,89.533,35.102
		c12.208,11.288,22.289,24.844,29.558,39.997c8.27,17.238,12.907,36.537,12.907,56.899
		C279.996,220.782,220.782,279.996,147.998,279.996z"/>
	<path d="M147.997,184.174c0.676,7.488,3.876,14.792,9.608,20.523c6.499,6.499,15.018,9.749,23.535,9.749
		c8.518,0,17.037-3.25,23.535-9.749c7.852-7.851,23.536-23.534,23.536-23.534s-17.881-17.88-23.535-23.535
		c-6.499-6.498-15.018-9.748-23.536-9.748c-8.519,0-17.037,3.25-23.535,9.748c-5.732,5.732-8.933,13.036-9.608,20.524
		c-0.676-7.488-3.876-14.792-9.608-20.524c-6.498-6.498-15.017-9.748-23.535-9.748c-8.519,0-17.037,3.25-23.536,9.748
		c-5.654,5.655-23.535,23.535-23.535,23.535s15.684,15.684,23.536,23.534c6.498,6.499,15.017,9.749,23.535,9.749
		s17.036-3.25,23.535-9.749C144.121,198.966,147.321,191.662,147.997,184.174z"/>
	<circle cx="98.497" cy="114.998" r="16"/>
	<circle cx="197.497" cy="114.998" r="16"/>
</g>
<g>
</g>
<g>
</g>
<g>
</g>
<g>
</g>
<g>
</g>
<g>
</g>
<g>
</g>
<g>
</g>
<g>
</g>
<g>
</g>
<g>
</g>
<g>
</g>
<g>
</g>
<g>
</g>
<g>
</g>
</svg>
