<?xml version="1.0" encoding="iso-8859-1"?>
<!-- Generator: Adobe Illustrator 19.0.0, SVG Export Plug-In . SVG Version: 6.00 Build 0)  -->
<svg version="1.1" id="Layer_1" xmlns="http://www.w3.org/2000/svg" xmlns:xlink="http://www.w3.org/1999/xlink" x="0px" y="0px"
	 viewBox="0 0 295.996 295.996" style="enable-background:new 0 0 295.996 295.996;" xml:space="preserve">
<g>
	<path style="fill:#FFCE00;" d="M270.996,123.998c0-11.334-1.363-22.348-3.907-32.899c-7.269-15.153-17.35-28.709-29.558-39.997
		c-22.391-13.376-48.766-20.666-76.771-19.645C83.492,34.273,23.139,99.196,25.955,176.463c0.412,11.304,2.17,22.239,5.087,32.673
		c6.303,12.01,14.397,22.938,23.934,32.42c21.892,14.189,47.99,22.44,76.022,22.44C208.316,263.996,270.996,201.316,270.996,123.998
		z M186.43,125.534c-3.035-2.911-4.933-6.999-4.933-11.536c0-8.836,7.164-16,16-16s16,7.164,16,16c0,4.537-1.898,8.624-4.932,11.536
		c10.43,4.341,17.765,14.627,17.765,26.629c0,15.925-12.908,28.834-28.832,28.834c-15.926,0-28.834-12.909-28.834-28.834
		C168.664,140.161,175.998,129.875,186.43,125.534z M69.664,152.163c0-12.002,7.334-22.288,17.766-26.629
		c-3.035-2.911-4.933-6.999-4.933-11.536c0-8.836,7.164-16,16-16s16,7.164,16,16c0,4.537-1.897,8.624-4.932,11.536
		c10.43,4.341,17.765,14.627,17.765,26.629c0,15.925-12.908,28.834-28.832,28.834C82.572,180.997,69.664,168.088,69.664,152.163z
		 M104.664,188.997v-8h86v8c0,23.594-19.406,42.788-43,42.788C124.07,231.785,104.664,212.591,104.664,188.997z"/>
	<path style="fill:#FFB100;" d="M267.089,91.099c2.544,10.552,3.907,21.565,3.907,32.899c0,77.318-62.68,139.998-139.998,139.998
		c-28.032,0-54.131-8.251-76.022-22.44c23.88,23.744,56.767,38.44,93.022,38.44c72.784,0,131.998-59.214,131.998-131.998
		C279.996,127.636,275.358,108.337,267.089,91.099z"/>
	<path style="fill:#FFE454;" d="M160.76,31.457c28.006-1.021,54.381,6.269,76.771,19.645C213.985,29.328,182.521,16,147.998,16
		C75.214,16,16,75.214,16,147.998c0,22.05,5.442,42.849,15.042,61.138c-2.917-10.434-4.675-21.369-5.087-32.673
		C23.139,99.196,83.492,34.273,160.76,31.457z"/>
	<path d="M147.998,0C66.392,0,0,66.392,0,147.998s66.392,147.998,147.998,147.998s147.998-66.392,147.998-147.998
		S229.605,0,147.998,0z M147.998,279.996c-36.256,0-69.143-14.696-93.022-38.44c-9.536-9.482-17.631-20.41-23.934-32.42
		C21.442,190.847,16,170.048,16,147.998C16,75.214,75.214,16,147.998,16c34.523,0,65.987,13.328,89.533,35.102
		c12.208,11.288,22.289,24.844,29.558,39.997c8.27,17.238,12.907,36.537,12.907,56.899
		C279.996,220.782,220.782,279.996,147.998,279.996z"/>
	<path style="fill:#FF9E00;" d="M127.33,152.163c0-12.002-7.335-22.288-17.765-26.629c-2.875,2.76-6.77,4.464-11.068,4.464
		s-8.193-1.704-11.067-4.464c-10.432,4.341-17.766,14.627-17.766,26.629c0,15.925,12.908,28.834,28.834,28.834
		C114.422,180.997,127.33,168.088,127.33,152.163z"/>
	<path style="fill:#FF9E00;" d="M197.498,180.997c15.924,0,28.832-12.909,28.832-28.834c0-12.002-7.335-22.288-17.765-26.629
		c-2.875,2.76-6.77,4.464-11.068,4.464s-8.193-1.704-11.067-4.464c-10.432,4.341-17.766,14.627-17.766,26.629
		C168.664,168.088,181.572,180.997,197.498,180.997z"/>
	<path d="M109.565,125.534c3.034-2.912,4.932-6.999,4.932-11.536c0-8.836-7.164-16-16-16s-16,7.164-16,16
		c0,4.537,1.897,8.625,4.933,11.536c2.874,2.76,6.769,4.464,11.067,4.464S106.69,128.294,109.565,125.534z"/>
	<path d="M208.566,125.534c3.034-2.912,4.932-6.999,4.932-11.536c0-8.836-7.164-16-16-16s-16,7.164-16,16
		c0,4.537,1.898,8.625,4.933,11.536c2.874,2.76,6.769,4.464,11.067,4.464S205.691,128.294,208.566,125.534z"/>
	<path style="fill:#FFFFFF;" d="M147.876,215.785c11.986,0,22.158-7.912,25.568-18.788h-51.137
		C125.718,207.873,135.89,215.785,147.876,215.785z"/>
	<path d="M190.664,188.997v-8h-86v8c0,23.594,19.406,42.788,43,42.788C171.258,231.785,190.664,212.591,190.664,188.997z
		 M173.444,196.997c-3.41,10.876-13.582,18.788-25.568,18.788s-22.158-7.912-25.568-18.788H173.444z"/>
</g>
<g>
</g>
<g>
</g>
<g>
</g>
<g>
</g>
<g>
</g>
<g>
</g>
<g>
</g>
<g>
</g>
<g>
</g>
<g>
</g>
<g>
</g>
<g>
</g>
<g>
</g>
<g>
</g>
<g>
</g>
</svg>
